# xmcd
#
# Track frame offsets: 
#        150
#        19035
#        33980
#        48747
#        64745
#        84095
#        95797
#        123515
#        133950
#        149740
#        163622
#        180992
#
# Disc length: 2745 seconds
#
# Revision: 0
# Processed by: cddbd v1.5.2PL0 Copyright (c) Steve Scherf et al.
# Submitted via: ExactAudioCopy v0.99pb5
#
DISCID=a80ab70c
DTITLE=Leika and The Waiters - Lady Madonna
DYEAR=1994
DGENRE=Pop-JP
TTITLE0=Day Tripper
TTITLE1=Lady Madonna
TTITLE2=In My Life
TTITLE3=Do You Want To Know A Secret
TTITLE4=Come Together
TTITLE5=Good Day Sunshine
TTITLE6=This Boy
TTITLE7=When I'm Sixty-Four
TTITLE8=If I Fell
TTITLE9=I Feel Fine
TTITLE10=MEDLEY~Revolution~I Saw Her Standing There~Love Me Do~You Can
TTITLE10=Do That~Drive My Car
TTITLE11=Can't Buy Me Love
EXTD=
EXTT0=
EXTT1=
EXTT2=
EXTT3=
EXTT4=
EXTT5=
EXTT6=
EXTT7=
EXTT8=
EXTT9=
EXTT10=
EXTT11=
PLAYORDER=
